# xmcd
#
# Track frame offsets: 
#        150
#        21447
#        37552
#        60929
#        104114
#        123668
#        142062
#        161913
#        190428
#        211367
#        231215
#        246616
#        262512
#
# Disc length: 3722 seconds
#
# Revision: 0
# Processed by: cddbd v1.5.2PL0 Copyright (c) Steve Scherf et al.
# Submitted via: ExactAudioCopy v0.99pb4
#
DISCID=be0e880d
DTITLE=Roland Van Campenhout - Parcours CD2
DYEAR=2009
DGENRE=Blues
TTITLE0=Back to coal
TTITLE1=Jambo Africa
TTITLE2=Florida handshake
TTITLE3=The last tribe - Love and devotion
TTITLE4=Believe no more (with Pieter-Jan de Smet)
TTITLE5=The Blues before you were born
TTITLE6=Vilvoorde (with Wannes Van de Velde)
TTITLE7=Pieter Breughel in Brussel (with Spelers and Drinkers)
TTITLE8=Fire in the morning (Live at Toots Studio)
TTITLE9=Midnight star (Live at Toots Studio)
TTITLE10=Never enough (Live at Toots Studio)
TTITLE11=Never too soon (Live at Toots Studio)
TTITLE12=In my time (Live at Toots Studio)
EXTD=
EXTT0=
EXTT1=
EXTT2=
EXTT3=
EXTT4=
EXTT5=
EXTT6=
EXTT7=
EXTT8=
EXTT9=
EXTT10=
EXTT11=
EXTT12=
PLAYORDER=
